# File created by Blade
# Date/Time:  Mon Sep 22 19:00:17 2014
# Frame Rate: 120.000 fps
#------------------------------------------------------
:FULLY-SPECIFIED
:DEGREES
3133
root -0.819701 32.829629 -3.984647 42.585553 -1.192352 0.865925
Spine -49.409966 -22.065038 17.899819
Head 11.422552 4.472577 -7.853535
LeftShoulder -19.015492 42.474237 3.124440
LeftArm 65.439746 35.661243 -56.556223
LeftForeArm 10.236168 -0.000000 8.586759
LeftHand -19.149343 -0.000000 -5.393073
LeftHandThumb1 -26.253704 0.000000 33.147579
RightShoulder -39.421933 -30.616572 -39.287382
RightArm -231.144266 72.904607 -208.673723
RightForeArm 54.488005 -0.000000 150.519287
RightHand 18.466462 -0.000000 -1.753590
RightHandThumb1 -24.326973 -0.000000 -32.862282
LeftUpLeg -37.125616 8.339915 -3.790961
LeftLeg -0.828451 -0.000000 0.000000
LeftFoot -1.366823 -1.441482 -4.146161
LeftToeBase 2.305122 -0.000000 -0.000000
RightUpLeg -38.412128 -7.559187 3.503189
RightLeg -0.849015 -0.000000 0.000000
RightFoot -6.692298 -5.948048 19.912320
RightToeBase 16.487169 -0.000000 -0.000000
3134
root -0.813221 32.830716 -3.992700 42.584793 -1.273116 0.865068
Spine -49.386731 -22.034587 17.870613
Head 11.471212 4.511524 -7.985251
LeftShoulder -19.027554 42.489815 3.114899
LeftArm 65.460090 35.658626 -56.526264
LeftForeArm 10.263435 -0.000000 8.586783
LeftHand -19.084361 -0.000000 -5.426617
LeftHandThumb1 -26.253704 0.000000 33.147579
RightShoulder -39.404488 -30.649620 -39.221857
RightArm -231.900468 73.077541 -209.458357
RightForeArm 54.356211 0.000000 150.065484
RightHand 18.508526 -0.000000 -1.748782
RightHandThumb1 -24.326973 -0.000000 -32.862282
LeftUpLeg -37.136442 8.338405 -3.812197
LeftLeg -0.810705 -0.000000 0.000000
LeftFoot -1.381346 -1.385491 -4.183940
LeftToeBase 2.300699 -0.000000 -0.000000
RightUpLeg -38.428744 -7.565662 3.492369
RightLeg -0.873095 -0.000000 0.000000
RightFoot -6.623216 -5.893316 19.916057
RightToeBase 16.478070 -0.000000 -0.000000
3135
root -0.808699 32.832134 -3.998943 42.550282 -1.390165 0.855408
Spine -49.320769 -21.975586 17.795759
Head 11.528411 4.578242 -8.102640
LeftShoulder -19.032834 42.527304 3.101157
LeftArm 65.440814 35.605814 -56.547967
LeftForeArm 10.281898 -0.000000 8.614903
LeftHand -19.078356 0.000000 -5.439164
LeftHandThumb1 -26.253704 0.000000 33.147579
RightShoulder -39.376272 -30.715941 -39.166857
RightArm -232.641087 73.261128 -210.222172
RightForeArm 54.771667 -0.000000 149.458715
RightHand 18.539339 -0.000000 -1.757944
RightHandThumb1 -24.326973 -0.000000 -32.862282
LeftUpLeg -37.100438 8.368195 -3.837520
LeftLeg -0.805598 -0.000000 0.000000
LeftFoot -1.382132 -1.312116 -4.144794
LeftToeBase 2.294402 -0.000000 -0.000000
RightUpLeg -38.421242 -7.543742 3.467627
RightLeg -0.874519 -0.000000 0.000000
RightFoot -6.567569 -5.838740 19.888881
RightToeBase 16.480894 -0.000000 -0.000000
3136
root -0.803852 32.833799 -4.005189 42.503924 -1.468937 0.850229
Spine -49.243912 -21.938436 17.739524
Head 11.567845 4.654064 -8.217586
LeftShoulder -19.041554 42.571582 3.079926
LeftArm 65.398295 35.529283 -56.591669
LeftForeArm 10.317967 0.000000 8.684837
LeftHand -19.063016 -0.000000 -5.404634
LeftHandThumb1 -26.253704 0.000000 33.147579
RightShoulder -39.347764 -30.794745 -39.122214
RightArm -233.104134 73.383820 -210.687829
RightForeArm 55.789032 0.000000 148.757571
RightHand 18.695194 -0.000000 -1.771642
RightHandThumb1 -24.326973 -0.000000 -32.862282
LeftUpLeg -37.063413 8.366766 -3.838609
LeftLeg -0.784609 -0.000000 0.000000
LeftFoot -1.387613 -1.251528 -4.191384
LeftToeBase 2.310152 -0.000000 -0.000000
RightUpLeg -38.398644 -7.541344 3.453311
RightLeg -0.875856 -0.000000 0.000000
RightFoot -6.516923 -5.789889 19.894133
RightToeBase 16.472381 -0.000000 -0.000000
3137
root -0.797204 32.836041 -4.010760 42.451355 -1.515904 0.858378
Spine -49.179956 -21.925921 17.712559
Head 11.629140 4.685810 -8.379300
LeftShoulder -19.030994 42.602026 3.057427
LeftArm 65.322481 35.437354 -56.664071
LeftForeArm 10.309256 -0.000000 8.750830
LeftHand -19.106133 -0.000000 -5.330614
LeftHandThumb1 -26.253704 0.000000 33.147579
RightShoulder -39.308245 -30.877873 -39.109287
RightArm -233.674896 73.507064 -211.280580
RightForeArm 56.722232 0.000000 148.056754
RightHand 18.835459 -0.000000 -1.868894
RightHandThumb1 -24.326973 -0.000000 -32.862282
LeftUpLeg -37.027691 8.362554 -3.856645
LeftLeg -0.758791 -0.000000 0.000000
LeftFoot -1.391897 -1.210454 -4.174599
LeftToeBase 2.371161 -0.000000 -0.000000
RightUpLeg -38.370469 -7.561475 3.437309
RightLeg -0.869665 -0.000000 0.000000
RightFoot -6.482631 -5.764781 19.895380
RightToeBase 16.471446 -0.000000 -0.000000
3138
root -0.791580 32.837106 -4.013597 42.354529 -1.575617 0.854873
Spine -49.070006 -21.912324 17.665034
Head 11.700350 4.710027 -8.499018
LeftShoulder -19.024722 42.620534 3.040252
LeftArm 65.220894 35.346628 -56.761426
LeftForeArm 10.310984 0.000000 8.820318
LeftHand -19.145970 -0.000000 -5.230758
LeftHandThumb1 -26.253704 0.000000 33.147579
RightShoulder -39.260385 -30.971289 -39.094980
RightArm -234.045877 73.574555 -211.665855
RightForeArm 57.740723 0.000000 147.430482
RightHand 18.959944 -0.000000 -1.991421
RightHandThumb1 -24.326973 -0.000000 -32.862282
LeftUpLeg -36.937129 8.379643 -3.863824
LeftLeg -0.739932 -0.000000 0.000000
LeftFoot -1.393144 -1.178967 -4.173778
LeftToeBase 2.286027 -0.000000 -0.000000
RightUpLeg -38.290667 -7.548513 3.400200
RightLeg -0.861028 -0.000000 0.000000
RightFoot -6.459179 -5.753706 19.882991
RightToeBase 16.502295 -0.000000 -0.000000
3139
root -0.785183 32.839003 -4.016941 42.256316 -1.616480 0.860424
Spine -48.962889 -21.917303 17.620808
Head 11.784227 4.702425 -8.618493
LeftShoulder -19.029317 42.666306 3.009625
LeftArm 65.151760 35.226928 -56.862761
LeftForeArm 10.342091 -0.000000 8.868966
LeftHand -19.206724 0.000000 -5.106232
LeftHandThumb1 -26.253704 0.000000 33.147579
RightShoulder -39.251515 -30.970211 -39.126531
RightArm -234.908223 73.641213 -212.592975
RightForeArm 58.492647 -0.000000 146.904299
RightHand 19.104666 0.000000 -2.176491
RightHandThumb1 -24.326973 -0.000000 -32.862282
LeftUpLeg -36.842203 8.364534 -3.855972
LeftLeg -0.730273 -0.000000 0.000000
LeftFoot -1.390390 -1.141316 -4.211972
LeftToeBase 2.333747 -0.000000 -0.000000
RightUpLeg -38.220962 -7.560572 3.371916
RightLeg -0.834624 -0.000000 0.000000
RightFoot -6.444125 -5.739469 19.868565
RightToeBase 16.518950 -0.000000 -0.000000
3140
root -0.777610 32.840918 -4.021040 42.186671 -1.663114 0.866372
Spine -48.887890 -21.924052 17.602032
Head 11.868339 4.693164 -8.728040
LeftShoulder -19.052884 42.693420 2.979681
LeftArm 65.096137 35.134499 -56.932009
LeftForeArm 10.341604 -0.000000 8.908407
LeftHand -19.233186 -0.000000 -5.014612
LeftHandThumb1 -26.253704 0.000000 33.147579
RightShoulder -39.211452 -30.967991 -39.173087
RightArm -235.503169 73.663046 -213.230750
RightForeArm 59.221734 0.000000 146.514829
RightHand 19.119854 -0.000000 -2.370079
RightHandThumb1 -24.326973 -0.000000 -32.862282
LeftUpLeg -36.786392 8.385712 -3.887583
LeftLeg -0.711311 -0.000000 0.000000
LeftFoot -1.385328 -1.131765 -4.207868
LeftToeBase 2.307937 -0.000000 -0.000000
RightUpLeg -38.179981 -7.553710 3.329721
RightLeg -0.803937 -0.000000 0.000000
RightFoot -6.438009 -5.737333 19.828054
RightToeBase 16.556105 -0.000000 -0.000000
3141
root -0.769545 32.842095 -4.024861 42.108791 -1.709861 0.871681
Spine -48.795345 -21.917020 17.572982
Head 11.936954 4.675545 -8.839188
LeftShoulder -19.073717 42.707490 2.943200
LeftArm 65.034622 35.033482 -57.003001
LeftForeArm 10.342920 0.000000 8.954509
LeftHand -19.275676 -0.000000 -4.979954
LeftHandThumb1 -26.253704 0.000000 33.147579
RightShoulder -39.182806 -31.005907 -39.213563
RightArm -235.638582 73.606593 -213.344752
RightForeArm 59.794943 0.000000 146.280918
RightHand 19.152871 0.000000 -2.314249
RightHandThumb1 -24.326973 -0.000000 -32.862282
LeftUpLeg -36.719602 8.415460 -3.925178
LeftLeg -0.697430 -0.000000 0.000000
LeftFoot -1.388395 -1.133623 -4.194119
LeftToeBase 2.344535 -0.000000 -0.000000
RightUpLeg -38.133008 -7.546640 3.285382
RightLeg -0.769998 -0.000000 0.000000
RightFoot -6.427465 -5.741178 19.834118
RightToeBase 16.546608 -0.000000 -0.000000
3142
root -0.761280 32.842555 -4.028910 42.046011 -1.748673 0.880021
Spine -48.718987 -21.920212 17.548992
Head 12.009883 4.613224 -8.925370
LeftShoulder -19.093190 42.713424 2.937987
LeftArm 65.028279 34.976077 -57.032662
LeftForeArm 10.238269 -0.000000 8.943342
LeftHand -19.293689 -0.000000 -4.781225
LeftHandThumb1 -26.253704 0.000000 33.147579
RightShoulder -39.150054 -31.035007 -39.236135
RightArm -235.557306 73.526413 -213.263221
RightForeArm 60.090349 -0.000000 146.169508
RightHand 19.172987 -0.000000 -2.159531
RightHandThumb1 -24.326973 -0.000000 -32.862282
LeftUpLeg -36.668525 8.440471 -3.963230
LeftLeg -0.684312 -0.000000 0.000000
LeftFoot -1.385147 -1.147762 -4.210910
LeftToeBase 2.323638 -0.000000 -0.000000
RightUpLeg -38.099491 -7.525872 3.232095
RightLeg -0.735723 -0.000000 0.000000
RightFoot -6.435257 -5.743779 19.862187
RightToeBase 16.517619 -0.000000 -0.000000
3143
root -0.753708 32.842208 -4.032715 41.977901 -1.788981 0.883657
Spine -48.628672 -21.915742 17.508901
Head 12.084821 4.516878 -9.001141
LeftShoulder -19.125675 42.717962 2.920714
LeftArm 65.003337 34.875643 -57.085470
LeftForeArm 10.405025 -0.000000 8.949553
LeftHand -19.302059 -0.000000 -4.818420
LeftHandThumb1 -26.253704 0.000000 33.147579
RightShoulder -39.068196 -31.069915 -39.266546
RightArm -234.997316 73.472576 -212.668156
RightForeArm 60.148493 0.000000 146.227445
RightHand 19.212350 -0.000000 -1.978876
RightHandThumb1 -24.326973 -0.000000 -32.862282
LeftUpLeg -36.613039 8.493273 -4.014771
LeftLeg -0.675197 -0.000000 0.000000
LeftFoot -1.395533 -1.181606 -4.213842
LeftToeBase 2.329193 -0.000000 -0.000000
RightUpLeg -38.057928 -7.502374 3.183100
RightLeg -0.704769 -0.000000 0.000000
RightFoot -6.434245 -5.771330 19.811002
RightToeBase 16.477202 -0.000000 -0.000000
